0
SECTION
2
HEADER
9
$INSUNITS
70
4
9
$ACADVER
1
AC1014
9
$HANDSEED
5
FFFF
0
ENDSEC
0
SECTION
2
TABLES
0
TABLE
2
VPORT
5
8
100
AcDbSymbolTable
0
ENDTAB
0
TABLE
2
LTYPE
5
5
100
AcDbSymbolTable
0
LTYPE
5
14
100
AcDbSymbolTableRecord
100
AcDbLinetypeTableRecord
2
BYBLOCK
70
0
0
LTYPE
5
15
100
AcDbSymbolTableRecord
100
AcDbLinetypeTableRecord
2
BYLAYER
70
0
0
ENDTAB
0
TABLE
2
LAYER
5
2
100
AcDbSymbolTable
70
2
0
LAYER
5
50
100
AcDbSymbolTableRecord
100
AcDbLayerTableRecord
2
0
70
0
6
CONTINUOUS
0
ENDTAB
0
TABLE
2
STYLE
5
3
100
AcDbSymbolTable
70
1
0
STYLE
5
11
100
AcDbSymbolTableRecord
100
AcDbTextStyleTableRecord
2
STANDARD
70
0
0
ENDTAB
0
TABLE
2
VIEW
5
6
100
AcDbSymbolTable
70
0
0
ENDTAB
0
TABLE
2
UCS
5
7
100
AcDbSymbolTable
70
0
0
ENDTAB
0
TABLE
2
APPID
5
9
100
AcDbSymbolTable
70
2
0
APPID
5
12
100
AcDbSymbolTableRecord
100
AcDbRegAppTableRecord
2
ACAD
70
0
0
ENDTAB
0
TABLE
2
DIMSTYLE
5
A
100
AcDbSymbolTable
70
1
0
ENDTAB
0
TABLE
2
BLOCK_RECORD
5
1
100
AcDbSymbolTable
70
1
0
BLOCK_RECORD
5
1F
100
AcDbSymbolTableRecord
100
AcDbBlockTableRecord
2
*MODEL_SPACE
0
BLOCK_RECORD
5
1B
100
AcDbSymbolTableRecord
100
AcDbBlockTableRecord
2
*PAPER_SPACE
0
ENDTAB
0
ENDSEC
0
SECTION
2
BLOCKS
0
BLOCK
5
20
100
AcDbEntity
100
AcDbBlockBegin
2
*MODEL_SPACE
0
ENDBLK
5
21
100
AcDbEntity
100
AcDbBlockEnd
0
BLOCK
5
1C
100
AcDbEntity
100
AcDbBlockBegin
2
*PAPER_SPACE
0
ENDBLK
5
1D
100
AcDbEntity
100
AcDbBlockEnd
0
ENDSEC
0
SECTION
2
ENTITIES
0
CIRCLE
5
100
100
AcDbEntity
8
0
100
AcDbCircle
10
-54.700000000000003
20
-6.4700000000000006
30
0
40
1.1500000000000021
210
0
220
-0
230
1
0
CIRCLE
5
101
100
AcDbEntity
8
0
100
AcDbCircle
10
-36.963700000000003
20
-38.908799999999999
30
0
40
0.20319999999999894
210
0
220
-0
230
1
0
CIRCLE
5
102
100
AcDbEntity
8
0
100
AcDbCircle
10
-36.113700000000001
20
-38.908799999999999
30
0
40
0.20319999999999894
210
0
220
-0
230
1
0
CIRCLE
5
103
100
AcDbEntity
8
0
100
AcDbCircle
10
-19.859999999999999
20
-11.800000000000001
30
0
40
0.45000000000000151
210
0
220
-0
230
1
0
CIRCLE
5
104
100
AcDbEntity
8
0
100
AcDbCircle
10
-34.413699999999999
20
-38.908799999999999
30
0
40
0.20319999999999894
210
0
220
-0
230
1
0
CIRCLE
5
105
100
AcDbEntity
8
0
100
AcDbCircle
10
-35.2637
20
-38.908799999999999
30
0
40
0.20319999999999894
210
0
220
-0
230
1
0
CIRCLE
5
106
100
AcDbEntity
8
0
100
AcDbCircle
10
-19.859999999999999
20
-9.1799999999999997
30
0
40
0.45000000000000151
210
0
220
-0
230
1
0
LWPOLYLINE
5
107
100
AcDbEntity
8
0
100
AcDbPolyline
90
30
70
1
43
0.0
10
-31.714510161513779
20
-39.873900000000006
42
0.071796769724487217
10
-31.714510161513779
20
-39.9739
42
0.071796769724484455
10
-31.714510161513779
20
-40.073900000000002
42
0.071796769724472326
10
-31.714510161513779
20
-40.173900000000003
42
1.1547005383792188
10
-31.021689838486228
20
-40.173900000000003
42
0.071796769724518594
10
-31.021689838486225
20
-40.073900000000002
42
0.071796769724490381
10
-31.021689838486225
20
-39.973900000000008
42
0.071796769724493933
10
-31.021689838486225
20
-39.873900000000006
42
0.071796769724490964
10
-31.021689838486225
20
-39.773900000000005
42
0.071796769724503384
10
-31.021689838486225
20
-39.673900000000003
42
0.071796769724490964
10
-31.021689838486225
20
-39.573900000000002
42
0.071796769724490964
10
-31.021689838486225
20
-39.4739
42
0.071796769724490964
10
-31.021689838486225
20
-39.373900000000006
42
0.071796769724503384
10
-31.021689838486225
20
-39.273899999999998
42
0.071796769724490964
10
-31.021689838486225
20
-39.173900000000003
42
0.071796769724490964
10
-31.021689838486225
20
-39.073900000000002
42
0.071796769724490964
10
-31.021689838486225
20
-38.973900000000008
42
0.071796769724490964
10
-31.021689838486225
20
-38.873900000000006
42
0.071796769724503384
10
-31.021689838486225
20
-38.773899999999998
42
1.1547005383792468
10
-31.714510161513779
20
-38.773899999999998
42
0.071796769724486814
10
-31.714510161513779
20
-38.873900000000006
42
0.071796769724487217
10
-31.714510161513779
20
-38.973900000000008
42
0.071796769724487217
10
-31.714510161513779
20
-39.073900000000002
42
0.071796769724487217
10
-31.714510161513779
20
-39.173900000000003
42
0.071796769724487217
10
-31.714510161513779
20
-39.273899999999998
42
0.071796769724486814
10
-31.714510161513779
20
-39.373900000000006
42
0.071796769724487217
10
-31.714510161513779
20
-39.4739
42
0.071796769724487217
10
-31.714510161513779
20
-39.573900000000002
42
0.071796769724487217
10
-31.714510161513779
20
-39.673900000000003
42
0.071796769724486814
10
-31.714510161513779
20
-39.773900000000005
42
0.071796769724487217
0
CIRCLE
5
108
100
AcDbEntity
8
0
100
AcDbCircle
10
-51.630000000000003
20
-9.1799999999999997
30
0
40
0.44999999999999929
210
0
220
-0
230
1
0
CIRCLE
5
109
100
AcDbEntity
8
0
100
AcDbCircle
10
-41.560000000000002
20
-12.15
30
0
40
1.1500000000000021
210
0
220
-0
230
1
0
CIRCLE
5
110
100
AcDbEntity
8
0
100
AcDbCircle
10
-47.130000000000003
20
-9.1799999999999997
30
0
40
0.44999999999999929
210
0
220
-0
230
1
0
CIRCLE
5
111
100
AcDbEntity
8
0
100
AcDbCircle
10
-26.859999999999999
20
-11.800000000000001
30
0
40
0.44999999999999929
210
0
220
-0
230
1
0
CIRCLE
5
112
100
AcDbEntity
8
0
100
AcDbCircle
10
-49.130000000000003
20
-9.1799999999999997
30
0
40
0.44999999999999929
210
0
220
-0
230
1
0
CIRCLE
5
113
100
AcDbEntity
8
0
100
AcDbCircle
10
-29.930000000000003
20
-12.15
30
0
40
1.1500000000000021
210
0
220
-0
230
1
0
CIRCLE
5
114
100
AcDbEntity
8
0
100
AcDbCircle
10
-49.130000000000003
20
-11.800000000000001
30
0
40
0.44999999999999929
210
0
220
-0
230
1
0
CIRCLE
5
115
100
AcDbEntity
8
0
100
AcDbCircle
10
-22.360000000000003
20
-11.800000000000001
30
0
40
0.44999999999999929
210
0
220
-0
230
1
0
CIRCLE
5
116
100
AcDbEntity
8
0
100
AcDbCircle
10
-47.130000000000003
20
-11.800000000000001
30
0
40
0.44999999999999929
210
0
220
-0
230
1
0
CIRCLE
5
117
100
AcDbEntity
8
0
100
AcDbCircle
10
-16.789999999999999
20
-6.4700000000000006
30
0
40
1.1499999999999999
210
0
220
-0
230
1
0
CIRCLE
5
118
100
AcDbEntity
8
0
100
AcDbCircle
10
-51.630000000000003
20
-11.800000000000001
30
0
40
0.44999999999999929
210
0
220
-0
230
1
0
CIRCLE
5
119
100
AcDbEntity
8
0
100
AcDbCircle
10
-24.359999999999999
20
-11.800000000000001
30
0
40
0.44999999999999929
210
0
220
-0
230
1
0
CIRCLE
5
120
100
AcDbEntity
8
0
100
AcDbCircle
10
-44.630000000000003
20
-9.1799999999999997
30
0
40
0.44999999999999929
210
0
220
-0
230
1
0
CIRCLE
5
121
100
AcDbEntity
8
0
100
AcDbCircle
10
-16.789999999999999
20
-12.15
30
0
40
1.1499999999999999
210
0
220
-0
230
1
0
CIRCLE
5
122
100
AcDbEntity
8
0
100
AcDbCircle
10
-61.874000000000002
20
-5.0381
30
0
40
1.6500000000000004
210
0
220
-0
230
1
0
CIRCLE
5
123
100
AcDbEntity
8
0
100
AcDbCircle
10
-9.2451699999999999
20
-5.0381
30
0
40
1.6500000000000004
210
0
220
-0
230
1
0
CIRCLE
5
124
100
AcDbEntity
8
0
100
AcDbCircle
10
-27.279200000000003
20
-34.248100000000001
30
0
40
1.6500000000000004
210
0
220
-0
230
1
0
LWPOLYLINE
5
125
100
AcDbEntity
8
0
100
AcDbPolyline
90
30
70
1
43
0.0
10
-40.35451016151378
20
-39.873900000000006
42
0.071796769724487217
10
-40.35451016151378
20
-39.9739
42
0.07179676972448347
10
-40.35451016151378
20
-40.073900000000002
42
0.071796769724471632
10
-40.35451016151378
20
-40.173900000000003
42
1.1547005383792188
10
-39.661689838486232
20
-40.173900000000003
42
0.071796769724519469
10
-39.661689838486225
20
-40.073900000000002
42
0.071796769724491463
10
-39.661689838486225
20
-39.973900000000008
42
0.071796769724493933
10
-39.661689838486225
20
-39.873900000000006
42
0.071796769724490964
10
-39.661689838486225
20
-39.773900000000005
42
0.071796769724502607
10
-39.661689838486225
20
-39.673900000000003
42
0.071796769724490964
10
-39.661689838486225
20
-39.573900000000002
42
0.071796769724490964
10
-39.661689838486225
20
-39.4739
42
0.071796769724490964
10
-39.661689838486225
20
-39.373900000000006
42
0.071796769724502607
10
-39.661689838486225
20
-39.273899999999998
42
0.071796769724490964
10
-39.661689838486225
20
-39.173900000000003
42
0.071796769724490964
10
-39.661689838486225
20
-39.073900000000002
42
0.071796769724490964
10
-39.661689838486225
20
-38.973900000000008
42
0.071796769724490964
10
-39.661689838486225
20
-38.873900000000006
42
0.071796769724502607
10
-39.661689838486225
20
-38.773899999999998
42
1.1547005383792468
10
-40.35451016151378
20
-38.773899999999998
42
0.071796769724487911
10
-40.35451016151378
20
-38.873900000000006
42
0.071796769724487217
10
-40.35451016151378
20
-38.973900000000008
42
0.071796769724487217
10
-40.35451016151378
20
-39.073900000000002
42
0.071796769724487217
10
-40.35451016151378
20
-39.173900000000003
42
0.071796769724487217
10
-40.35451016151378
20
-39.273899999999998
42
0.071796769724487911
10
-40.35451016151378
20
-39.373900000000006
42
0.071796769724487217
10
-40.35451016151378
20
-39.4739
42
0.071796769724487217
10
-40.35451016151378
20
-39.573900000000002
42
0.071796769724487217
10
-40.35451016151378
20
-39.673900000000003
42
0.071796769724487911
10
-40.35451016151378
20
-39.773900000000005
42
0.071796769724487217
0
CIRCLE
5
126
100
AcDbEntity
8
0
100
AcDbCircle
10
-43.840000000000003
20
-34.248100000000001
30
0
40
1.6500000000000004
210
0
220
-0
230
1
0
CIRCLE
5
127
100
AcDbEntity
8
0
100
AcDbCircle
10
-24.359999999999999
20
-9.1799999999999997
30
0
40
0.44999999999999929
210
0
220
-0
230
1
0
CIRCLE
5
128
100
AcDbEntity
8
0
100
AcDbCircle
10
-38.663600000000002
20
-40.260400000000004
30
0
40
0.20319999999999894
210
0
220
-0
230
1
0
CIRCLE
5
129
100
AcDbEntity
8
0
100
AcDbCircle
10
-37.813600000000001
20
-40.260400000000004
30
0
40
0.20319999999999894
210
0
220
-0
230
1
0
CIRCLE
5
130
100
AcDbEntity
8
0
100
AcDbCircle
10
-32.713700000000003
20
-38.908799999999999
30
0
40
0.20319999999999894
210
0
220
-0
230
1
0
CIRCLE
5
131
100
AcDbEntity
8
0
100
AcDbCircle
10
-32.7136
20
-40.260400000000004
30
0
40
0.20319999999999894
210
0
220
-0
230
1
0
CIRCLE
5
132
100
AcDbEntity
8
0
100
AcDbCircle
10
-54.700000000000003
20
-12.15
30
0
40
1.1500000000000021
210
0
220
-0
230
1
0
CIRCLE
5
133
100
AcDbEntity
8
0
100
AcDbCircle
10
-35.263599999999997
20
-40.260400000000004
30
0
40
0.20319999999999894
210
0
220
-0
230
1
0
CIRCLE
5
134
100
AcDbEntity
8
0
100
AcDbCircle
10
-34.413600000000002
20
-40.260400000000004
30
0
40
0.20319999999999894
210
0
220
-0
230
1
0
CIRCLE
5
135
100
AcDbEntity
8
0
100
AcDbCircle
10
-37.813699999999997
20
-38.908799999999999
30
0
40
0.20319999999999894
210
0
220
-0
230
1
0
CIRCLE
5
136
100
AcDbEntity
8
0
100
AcDbCircle
10
-33.563600000000008
20
-40.260400000000004
30
0
40
0.20319999999999894
210
0
220
-0
230
1
0
CIRCLE
5
137
100
AcDbEntity
8
0
100
AcDbCircle
10
-22.360000000000003
20
-9.1799999999999997
30
0
40
0.44999999999999929
210
0
220
-0
230
1
0
CIRCLE
5
138
100
AcDbEntity
8
0
100
AcDbCircle
10
-33.563699999999997
20
-38.908799999999999
30
0
40
0.20319999999999894
210
0
220
-0
230
1
0
CIRCLE
5
139
100
AcDbEntity
8
0
100
AcDbCircle
10
-36.113599999999998
20
-40.260400000000004
30
0
40
0.20319999999999894
210
0
220
-0
230
1
0
CIRCLE
5
140
100
AcDbEntity
8
0
100
AcDbCircle
10
-38.663699999999999
20
-38.908799999999999
30
0
40
0.20319999999999894
210
0
220
-0
230
1
0
CIRCLE
5
141
100
AcDbEntity
8
0
100
AcDbCircle
10
-36.9636
20
-40.260400000000004
30
0
40
0.20319999999999894
210
0
220
-0
230
1
0
CIRCLE
5
142
100
AcDbEntity
8
0
100
AcDbCircle
10
-29.930000000000003
20
-6.4700000000000006
30
0
40
1.1500000000000021
210
0
220
-0
230
1
0
CIRCLE
5
143
100
AcDbEntity
8
0
100
AcDbCircle
10
-26.859999999999999
20
-9.1799999999999997
30
0
40
0.44999999999999929
210
0
220
-0
230
1
0
CIRCLE
5
144
100
AcDbEntity
8
0
100
AcDbCircle
10
-41.560000000000002
20
-6.4700000000000006
30
0
40
1.1500000000000021
210
0
220
-0
230
1
0
LWPOLYLINE
5
145
100
AcDbEntity
8
0
100
AcDbPolyline
90
30
70
1
43
0.0
10
-31.021689838486228
20
-43.023900000000012
42
0.071796769724518594
10
-31.021689838486225
20
-42.923900000000003
42
1.1547005383792468
10
-31.714510161513779
20
-42.923900000000003
42
0.071796769724472326
10
-31.714510161513779
20
-43.023900000000012
42
0.071796769724503592
10
-31.714510161513779
20
-43.123900000000006
42
0.071796769724503592
10
-31.714510161513779
20
-43.2239
42
0.071796769724503592
10
-31.714510161513779
20
-43.323900000000002
42
0.071796769724503592
10
-31.714510161513779
20
-43.423900000000003
42
0.071796769724504189
10
-31.714510161513772
20
-43.523899999999998
42
0.071796769724503995
10
-31.714510161513779
20
-43.623900000000006
42
0.071796769724478141
10
-31.714510161513779
20
-43.7239
42
0.071796769724478141
10
-31.714510161513779
20
-43.823900000000002
42
0.071796769724472326
10
-31.714510161513779
20
-43.923900000000003
42
0.071796769724503592
10
-31.714510161513779
20
-44.023900000000005
42
0.071796769724503592
10
-31.714510161513779
20
-44.123900000000006
42
0.071796769724503592
10
-31.714510161513779
20
-44.2239
42
0.071796769724503592
10
-31.714510161513779
20
-44.323899999999995
42
1.1547005383792177
10
-31.021689838486225
20
-44.323899999999995
42
0.071796769724474588
10
-31.021689838486225
20
-44.2239
42
0.071796769724474588
10
-31.021689838486225
20
-44.123900000000006
42
0.071796769724474588
10
-31.021689838486225
20
-44.023900000000005
42
0.071796769724474893
10
-31.021689838486228
20
-43.923900000000003
42
0.071796769724518594
10
-31.021689838486225
20
-43.823900000000002
42
0.071796769724499943
10
-31.021689838486225
20
-43.7239
42
0.071796769724499943
10
-31.021689838486225
20
-43.623900000000006
42
0.071796769724487008
10
-31.021689838486225
20
-43.523899999999998
42
0.071796769724474588
10
-31.021689838486225
20
-43.423900000000003
42
0.071796769724474588
10
-31.021689838486225
20
-43.323900000000002
42
0.071796769724474588
10
-31.021689838486225
20
-43.2239
42
0.071796769724474588
10
-31.021689838486225
20
-43.123900000000006
42
0.071796769724474893
0
CIRCLE
5
146
100
AcDbEntity
8
0
100
AcDbCircle
10
-44.630000000000003
20
-11.800000000000001
30
0
40
0.44999999999999929
210
0
220
-0
230
1
0
LWPOLYLINE
5
147
100
AcDbEntity
8
0
100
AcDbPolyline
90
30
70
1
43
0.0
10
-39.661689838486232
20
-43.023900000000012
42
0.071796769724519469
10
-39.661689838486225
20
-42.923900000000003
42
1.1547005383792468
10
-40.35451016151378
20
-42.923900000000003
42
0.071796769724471632
10
-40.35451016151378
20
-43.023900000000012
42
0.071796769724503592
10
-40.35451016151378
20
-43.123900000000006
42
0.071796769724503592
10
-40.35451016151378
20
-43.2239
42
0.071796769724503592
10
-40.35451016151378
20
-43.323900000000002
42
0.071796769724503592
10
-40.35451016151378
20
-43.423900000000003
42
0.071796769724503592
10
-40.35451016151378
20
-43.523899999999998
42
0.071796769724502607
10
-40.35451016151378
20
-43.623900000000006
42
0.071796769724478141
10
-40.35451016151378
20
-43.7239
42
0.071796769724478141
10
-40.35451016151378
20
-43.823900000000002
42
0.071796769724471632
10
-40.35451016151378
20
-43.923900000000003
42
0.071796769724503592
10
-40.35451016151378
20
-44.023900000000005
42
0.071796769724503592
10
-40.35451016151378
20
-44.123900000000006
42
0.071796769724503592
10
-40.35451016151378
20
-44.2239
42
0.071796769724503592
10
-40.35451016151378
20
-44.323899999999995
42
1.1547005383792177
10
-39.661689838486225
20
-44.323899999999995
42
0.071796769724474588
10
-39.661689838486225
20
-44.2239
42
0.071796769724474588
10
-39.661689838486225
20
-44.123900000000006
42
0.071796769724474588
10
-39.661689838486225
20
-44.023900000000005
42
0.071796769724474893
10
-39.661689838486232
20
-43.923900000000003
42
0.071796769724519469
10
-39.661689838486225
20
-43.823900000000002
42
0.071796769724499943
10
-39.661689838486225
20
-43.7239
42
0.071796769724499943
10
-39.661689838486225
20
-43.623900000000006
42
0.071796769724487911
10
-39.661689838486225
20
-43.523899999999998
42
0.071796769724474588
10
-39.661689838486225
20
-43.423900000000003
42
0.071796769724474588
10
-39.661689838486225
20
-43.323900000000002
42
0.071796769724474588
10
-39.661689838486225
20
-43.2239
42
0.071796769724474588
10
-39.661689838486225
20
-43.123900000000006
42
0.071796769724474893
0
LWPOLYLINE
5
148
100
AcDbEntity
8
0
100
AcDbPolyline
90
8
70
1
43
0.0
10
-5.0800000000000001
20
-17.780000000000005
10
-5.0800000000000001
20
-0.6349999999999989
10
-66.040000000000006
20
-0.6349999999999989
10
-66.040000000000006
20
-17.780000000000001
10
-45.719999999999999
20
-38.100000000000009
10
-45.719999999999999
20
-46.100999999999999
10
-25.399999999999999
20
-46.100999999999999
10
-25.399999999999999
20
-38.100000000000009
0
ENDSEC
0
SECTION
2
OBJECTS
0
DICTIONARY
5
C
100
AcDbDictionary
3
ACAD_GROUP
350
D
3
ACAD_MLINESTYLE
350
17
0
DICTIONARY
5
D
100
AcDbDictionary
0
DICTIONARY
5
1A
330
C
100
AcDbDictionary
0
DICTIONARY
5
17
100
AcDbDictionary
0
ENDSEC
0
EOF
